<svg width="120" height="120" viewBox="0 0 120 120" fill="none" xmlns="http://www.w3.org/2000/svg">
<rect width="120" height="120" rx="19" fill="#101827"/>
<mask id="mask0_5_18" style="mask-type:alpha" maskUnits="userSpaceOnUse" x="0" y="0" width="120" height="120">
<rect width="120" height="120" rx="19" fill="#212026"/>
</mask>
<g mask="url(#mask0_5_18)">
<path d="M50.5562 61.9241C54.805 60.5112 62.8629 57.3667 66.4945 58.7793C72.8191 66.1793 50.8203 88.4635 44.6505 97.2389C36.2004 109.258 17.5362 139.179 8.48569 158.555C1.24533 174.057 -4.39093 213.41 -10.5301 233.014L44.0497 249.09C58.818 191.455 88.3502 78.4162 89.1252 74.3615C90.189 68.7958 93.1965 46.4351 90.7128 38.0807C88.7922 31.6205 83.9227 20.6013 72.889 17.226C63.7747 14.4379 51.6666 23.7228 44.071 32.5428C36.4754 41.3628 29.6556 63.3492 31.4497 65.4483C33.2438 67.5475 47.7619 62.8533 50.5562 61.9241Z" fill="white"/>
</g>
</svg>
